<svg xmlns="http://www.w3.org/2000/svg" xmlns:xlink="http://www.w3.org/1999/xlink" width="14" height="17" viewBox="0 0 14 17">
  <defs>
    <polygon id="delete-icon-a" points="0 .013 13.996 .013 13.996 16.022 0 16.022"/>
  </defs>
  <g fill="none" fill-rule="evenodd" transform="translate(.084 .581)">
    <g transform="translate(0 .283)">
      <mask id="delete-icon-b" fill="#fff">
        <use xlink:href="#delete-icon-a"/>
      </mask>
      <path fill="#000" d="M5.41603641,1.82921076 C5.41395944,1.95026802 5.44006983,1.97667511 5.55548962,1.9995217 L8.45492961,1.9995217 C8.60654789,1.98409284 8.600317,1.89775053 8.58577826,1.80221024 C8.56115142,1.54377674 8.2163756,1.36070731 8.01491022,1.3437949 C7.33336973,1.28593665 6.6405543,1.28534323 5.95960723,1.34557515 C5.76555957,1.36278427 5.44155338,1.51440255 5.41603641,1.82921076 M6.95684605,5.0149749 C8.56293167,5.0149749 10.1696107,4.99776578 11.7753996,5.02357946 C12.3925543,5.03366757 12.6699771,4.85653231 12.6616693,4.18270626 C12.6542516,3.56021085 12.4872044,3.29050241 11.8213895,3.29524975 C8.60921827,3.31779963 5.39675032,3.31750292 2.18428238,3.29524975 C1.52707202,3.29079911 1.34044208,3.54240832 1.33569474,4.1741017 C1.3309474,4.83694952 1.58463356,5.03604124 2.21276644,5.0247663 C3.79363179,4.99687565 5.37538728,5.01556832 6.95684605,5.0149749 M2.92249428,6.29824117 C2.90943908,6.48754149 2.92101073,6.50534402 2.92101073,6.57447721 C2.91477984,9.07068972 2.91715352,11.5671989 2.90647199,14.0637082 C2.90439503,14.5945205 3.17588373,14.7262593 3.65506871,14.7232922 C5.85486896,14.7093469 8.05526264,14.6965884 10.2547662,14.7298198 C10.9232515,14.7399079 11.1057275,14.4796941 11.0991999,13.8560119 C11.0754632,11.5574075 11.0914855,9.2585065 11.0876282,6.95990216 C11.0870348,6.74597499 11.0991999,6.53798201 11.078727,6.30387864 C8.37244452,6.30387864 5.60207293,6.29824117 2.92249428,6.29824117 M1.64189839,6.36915461 C0.227190053,5.77484656 -0.203928071,4.95266602 0.0850664598,3.47831918 C0.250036644,2.63655585 0.867784706,2.09595212 1.73536171,2.05530299 C2.12968793,2.03661033 2.52549768,2.0490721 2.92041731,2.04847868 C3.31236986,2.04758856 3.70402569,2.04818197 4.08114278,2.04818197 C4.4294791,0.356050756 4.85584988,0.0142420302 6.55599224,0.0136486123 C6.92628503,0.0133519034 7.29687453,0.0130551944 7.66716731,0.0136486123 C9.11777744,0.0169124109 9.68478826,0.512713089 9.87675896,2.04788527 C10.53842,2.04788527 11.2166966,2.04521489 11.8949733,2.04847868 C13.0672704,2.05441286 13.7271512,2.52410315 13.9140778,3.48009943 C14.1920941,4.90163208 13.7627563,5.80066024 12.5928328,6.24661381 C12.5272601,6.27153736 12.4655447,6.30654902 12.3569492,6.35847309 C12.3569492,8.84044357 12.3575426,11.3325022 12.3566525,13.824264 C12.3557624,15.4288661 11.7721358,16.0193169 10.1841494,16.0205038 C8.011053,16.0216906 5.83765984,16.024361 3.6645634,16.0193169 C2.27863583,16.0160531 1.64456877,15.3721947 1.64278852,13.9708383 C1.63952472,11.4298227 1.64189839,8.88851042 1.64189839,6.36915461" mask="url(#delete-icon-b)"/>
    </g>
    <path fill="#FFF" d="M9.10896518,10.5735503 C9.10896518,9.95639565 9.11222898,9.33953771 9.10807505,8.72267978 C9.10510796,8.29452875 8.91491752,7.93046685 8.46659027,8.02897422 C8.22655272,8.08178842 7.89690906,8.45445488 7.88533741,8.69627268 C7.82629233,9.92731817 7.85952373,11.1628143 7.85685335,12.3971236 C7.85566652,12.8380331 8.04852734,13.1270276 8.50634927,13.1139724 C8.97247906,13.1003238 9.11697632,12.7766143 9.11193227,12.3505403 C9.10421784,11.7583092 9.10985531,11.1660781 9.10896518,10.5735503 M6.140392,10.6266612 C6.140392,9.98517642 6.19617328,9.33597721 6.11309477,8.70517395 C6.07926995,8.44881741 5.77751694,8.08416209 5.5380728,8.02927093 C5.09360278,7.92749976 4.89154397,8.28414393 4.89035714,8.71585547 C4.88709334,9.94986805 4.85801586,11.1853642 4.91676423,12.4167064 C4.92833588,12.6603044 5.25412233,13.0374215 5.49237962,13.0893456 C5.925278,13.183699 6.14335909,12.8472311 6.14157884,12.4036512 C6.13920516,11.8114201 6.14098542,11.219189 6.140392,10.6266612"/>
    <path fill="#000" d="M6.14071838 10.6267205C6.14101509 11.2192483 6.13923483 11.8114794 6.14160851 12.4037105 6.14338876 12.8469937 5.93539578 13.0894049 5.49211259 13.0894049 5.10787448 13.0894049 4.92836555 12.6603638 4.9167939 12.4167657 4.85804553 11.1854235 4.88712301 9.94992739 4.89038681 8.71591482 4.89157364 8.28420327 5.08235751 8.02933027 5.53810247 8.02933027 5.94222008 8.02933027 6.07929962 8.44887675 6.11312445 8.70523329 6.19620296 9.33603655 6.14042167 9.98493905 6.14071838 10.6267205M9.1095586 10.5735503C9.10985531 11.1660781 9.10421784 11.7583092 9.11193227 12.3505403 9.11697632 12.7766143 8.97247906 13.1003238 8.50634927 13.1139724 8.04852734 13.1270276 7.85566652 12.8380331 7.85685335 12.3971236 7.85952373 11.1628143 7.82629233 9.92731817 7.88533741 8.69627268 7.89690906 8.45445488 8.03784582 8.02897422 8.46659027 8.02897422 8.92559904 8.02897422 9.10510796 8.29452875 9.10807505 8.72267978 9.11222898 9.33953771 9.10896518 9.95639565 9.1095586 10.5735503"/>
  </g>
</svg>
