<svg xmlns="http://www.w3.org/2000/svg" xmlns:xlink="http://www.w3.org/1999/xlink" width="16" height="16" viewBox="0 0 16 16">
  <defs>
    <polygon id="edit-icon-a" points=".055 .854 12.195 .854 12.195 13.013 .055 13.013"/>
    <polygon id="edit-icon-c" points="10.168 -2.283 15.298 -2.283 15.298 2.877 10.168 2.877"/>
  </defs>
  <g fill="none" fill-rule="evenodd" transform="translate(.67 2.722)">
    <mask id="edit-icon-b" fill="#fff">
      <use xlink:href="#edit-icon-a"/>
    </mask>
    <path fill="#FFF" d="M0.0761293187,11.1242962 C0.0761293187,9.27373301 0.414046685,8.97328811 1.3016341,8.11740816 C3.61517071,5.88679878 5.86085778,3.58567907 8.13470462,1.31360607 C8.75222422,0.696529939 9.02406588,0.699634166 9.65311546,1.32713164 C10.3857132,2.05751209 11.1200848,2.78634042 11.8464741,3.5227076 C12.3096692,3.99233291 12.31233,4.33557181 11.8453655,4.80364502 C9.31408945,7.34090776 6.78325689,9.8781705 4.23535108,12.3985817 C3.99765592,12.6340596 3.65175625,12.8597813 3.33955963,12.8996928 C2.31339062,13.0302921 1.40185631,13.0580084 0.636442432,12.9329524 C0.187216327,12.8597813 0.126462155,12.5147685 0.0898766132,12.2333925 C0.0209184105,11.7043434 0.0761293187,11.4939211 0.0761293187,11.1242962" mask="url(#edit-icon-b)"/>
    <mask id="edit-icon-d" fill="#fff">
      <use xlink:href="#edit-icon-c"/>
    </mask>
    <path fill="#FFF" d="M12.025322,-2.28044667 C12.1894026,-2.26270823 12.3925078,-2.12723086 12.52732,-1.99574464 C13.3723351,-1.17179389 14.2055985,-0.335647969 15.0353143,0.503823913 C15.3750055,0.847506274 15.388531,1.22688725 15.0592612,1.58254306 C14.7211221,1.94751156 14.3674618,2.29917622 14.0042672,2.63953262 C13.6690106,2.95350309 13.2956163,2.95904635 12.9681203,2.63931089 C12.1106882,1.80183458 11.2658948,0.951054443 10.423097,0.0985004579 C10.1428296,-0.184649461 10.0652239,-0.541635655 10.331744,-0.848954205 C10.71689,-1.29330224 11.1517036,-1.6957432 11.5818609,-2.09862761 C11.679644,-2.19020233 11.8938358,-2.2995155 12.025322,-2.28044667" mask="url(#edit-icon-d)"/>
  </g>
</svg>
