<svg width="120" height="120" viewBox="0 0 120 120" fill="none" xmlns="http://www.w3.org/2000/svg">
    <g filter="url(#filter0_d)">
        <path d="M60 78C79.8823 78 96 61.8823 96 42C96 22.1177 79.8823 6 60 6C40.1177 6 24 22.1177 24 42C24 61.8823 40.1177 78 60 78Z" fill="#FFC300"/>
        <path fill-rule="evenodd" clip-rule="evenodd" d="M38.5638 44.544L52.3704 57.6575C52.8661 58.1283 53.5121 58.3636 54.2578 58.3636C55.0034 58.3636 55.6473 58.1283 56.1451 57.6575L79.9838 35.0157C80.4794 34.4967 80.7272 33.9314 80.7272 33.2231C80.7272 32.5149 80.4794 31.9013 79.9838 31.4306L76.2091 27.8454C75.7112 27.3263 75.0674 27.0909 74.3217 27.0909C73.5761 27.0909 72.93 27.3263 72.4344 27.8454L54.2578 45.1093L46.1132 37.3737C45.6153 36.8546 44.9715 36.6192 44.2258 36.6192C43.4802 36.6192 42.8341 36.8546 42.3385 37.3737L38.5638 40.9588C38.0681 41.4296 37.8181 42.0432 37.8181 42.7514C37.8181 43.4597 38.0681 44.025 38.5638 44.544Z" fill="white"/>
    </g>
    <defs>
        <filter id="filter0_d" x="0" y="0" width="120" height="120" filterUnits="userSpaceOnUse" color-interpolation-filters="sRGB">
        <feFlood flood-opacity="0" result="BackgroundImageFix"/>
        <feColorMatrix in="SourceAlpha" type="matrix" values="0 0 0 0 0 0 0 0 0 0 0 0 0 0 0 0 0 0 127 0"/>
        <feOffset dy="18"/>
        <feGaussianBlur stdDeviation="12"/>
        <feColorMatrix type="matrix" values="0 0 0 0 0.0901961 0 0 0 0 0.113725 0 0 0 0 0.129412 0 0 0 0.14 0"/>
        <feBlend mode="normal" in2="BackgroundImageFix" result="effect1_dropShadow"/>
        <feBlend mode="normal" in="SourceGraphic" in2="effect1_dropShadow" result="shape"/>
        </filter>
    </defs>
</svg>

