<?xml version="1.0" encoding="UTF-8"?>
<svg width="30px" height="40px" viewBox="0 0 30 40" version="1.1" xmlns="http://www.w3.org/2000/svg" xmlns:xlink="http://www.w3.org/1999/xlink">
    <!-- Generator: Sketch 51.3 (57544) - http://www.bohemiancoding.com/sketch -->
    <title>Country</title>
    <desc>Created with Sketch.</desc>
    <defs>
        <filter x="0.0%" y="0.0%" width="100.0%" height="100.0%" filterUnits="objectBoundingBox" id="filter-1">
            <feGaussianBlur stdDeviation="0" in="SourceGraphic"></feGaussianBlur>
        </filter>
    </defs>
    <g id="3.0.0---Dashboard" stroke="none" stroke-width="1" fill="none" fill-rule="evenodd">
        <g id="Desktop---Map--UI" transform="translate(-616.000000, -911.000000)" fill="#2B3841">
            <g id="Markers" transform="translate(376.000000, 533.000000)">
                <g id="Unselected" transform="translate(240.000000, 40.000000)">
                    <g id="Country" transform="translate(0.000000, 338.000000)">
                        <g id="Marker---Unselected">
                            <path d="M26.3636364,37.7142857 C26.3636364,38.9771023 21.2080677,40 14.8490178,40 C8.48890198,40 3.33333333,38.9771023 3.33333333,37.7142857 C3.33333333,36.4514691 8.48890198,35.4285714 14.8490178,35.4285714 C21.2080677,35.4285714 26.3636364,36.4514691 26.3636364,37.7142857" id="Shadow" fill-opacity="0.2" fill-rule="evenodd" filter="url(#filter-1)"></path>
                            <path d="M4.67649989,26.6218824 C1.79614626,23.8104639 0,19.8352669 0,15.4285714 C0,6.90760672 6.71572875,0 15,0 C23.2842712,0 30,6.90760672 30,15.4285714 C30,19.6914546 28.3191751,23.5505436 25.6020119,26.3429379 L15.0853136,38.4126674 L4.67649989,26.6218824 Z" id="Combined-Shape" fill-opacity="0.32" fill-rule="nonzero"></path>
                        </g>
                    </g>
                </g>
            </g>
        </g>
    </g>
</svg>