<?xml version="1.0" encoding="UTF-8"?>
<svg width="30px" height="40px" viewBox="0 0 30 40" version="1.1" xmlns="http://www.w3.org/2000/svg" xmlns:xlink="http://www.w3.org/1999/xlink">
    <!-- Generator: Sketch 51.3 (57544) - http://www.bohemiancoding.com/sketch -->
    <title>Protection - Green</title>
    <desc>Created with Sketch.</desc>
    <defs>
        <filter x="0.0%" y="0.0%" width="100.0%" height="100.0%" filterUnits="objectBoundingBox" id="filter-1">
            <feGaussianBlur stdDeviation="0" in="SourceGraphic"></feGaussianBlur>
        </filter>
    </defs>
    <g id="3.0.0---Dashboard" stroke="none" stroke-width="1" fill="none" fill-rule="evenodd">
        <g id="Desktop---Map--UI" transform="translate(-404.000000, -765.000000)">
            <g id="Markers" transform="translate(376.000000, 533.000000)">
                <g id="Green" transform="translate(28.000000, 40.000000)">
                    <g id="Protection---Green" transform="translate(0.000000, 192.000000)">
                        <g id="Marker---Green">
                            <g>
                                <ellipse id="Oval-6" fill="#00BA54" fill-rule="nonzero" cx="15" cy="15.4285714" rx="15" ry="15.4285714"></ellipse>
                                <path d="M26.3636364,37.7142857 C26.3636364,38.9771023 21.2080677,40 14.8490178,40 C8.48890198,40 3.33333333,38.9771023 3.33333333,37.7142857 C3.33333333,36.4514691 8.48890198,35.4285714 14.8490178,35.4285714 C21.2080677,35.4285714 26.3636364,36.4514691 26.3636364,37.7142857" id="Shadow" fill-opacity="0.2" fill="#2B3841" filter="url(#filter-1)"></path>
                                <polygon id="Triangle-2" fill="#00BA54" fill-rule="nonzero" transform="translate(15.013902, 32.183419) scale(1, -1) translate(-15.013902, -32.183419) " points="15.0853136 25.9541713 25.9407552 38.4126674 4.0870497 38.4126674"></polygon>
                            </g>
                        </g>
                        <path d="M15.1658379,24 C15.1658379,24 9.34793088,21.8642992 9.34793088,18.9690971 C9.34793088,16.5224027 9.08348056,12.3335096 9.00097206,11.0937665 C8.98722065,10.8800907 9.12050361,10.7044957 9.32889046,10.6611258 C10.2343684,10.4717794 12.743473,10 15.1658379,10 C17.5882029,10 20.1015387,10.4717794 21.0080744,10.6611258 C21.2175191,10.7044957 21.3508021,10.8811485 21.3370506,11.0937665 C21.2524265,12.3345674 20.983745,16.5224027 20.983745,18.9690971 C20.983745,21.8642992 15.1658379,24 15.1658379,24" id="Protection" fill="#004C22"></path>
                    </g>
                </g>
            </g>
        </g>
    </g>
</svg>