<?xml version="1.0" encoding="UTF-8"?>
<svg width="30px" height="40px" viewBox="0 0 30 40" version="1.1" xmlns="http://www.w3.org/2000/svg" xmlns:xlink="http://www.w3.org/1999/xlink">
    <!-- Generator: Sketch 51.3 (57544) - http://www.bohemiancoding.com/sketch -->
    <title>Protection - No Data Copy</title>
    <desc>Created with Sketch.</desc>
    <defs>
        <filter x="0.0%" y="0.0%" width="100.0%" height="100.0%" filterUnits="objectBoundingBox" id="filter-1">
            <feGaussianBlur stdDeviation="0" in="SourceGraphic"></feGaussianBlur>
        </filter>
    </defs>
    <g id="3.0.0---Dashboard" stroke="none" stroke-width="1" fill="none" fill-rule="evenodd">
        <g id="Desktop---Map--UI" transform="translate(-616.000000, -765.000000)">
            <g id="Markers" transform="translate(376.000000, 533.000000)">
                <g id="Unselected" transform="translate(240.000000, 40.000000)">
                    <g id="Protection---No-Data-Copy" transform="translate(0.000000, 192.000000)">
                        <g id="Marker---Unselected" fill="#2B3841">
                            <path d="M26.3636364,37.7142857 C26.3636364,38.9771023 21.2080677,40 14.8490178,40 C8.48890198,40 3.33333333,38.9771023 3.33333333,37.7142857 C3.33333333,36.4514691 8.48890198,35.4285714 14.8490178,35.4285714 C21.2080677,35.4285714 26.3636364,36.4514691 26.3636364,37.7142857" id="Shadow" fill-opacity="0.2" fill-rule="evenodd" filter="url(#filter-1)"></path>
                            <path d="M4.67649989,26.6218824 C1.79614626,23.8104639 0,19.8352669 0,15.4285714 C0,6.90760672 6.71572875,0 15,0 C23.2842712,0 30,6.90760672 30,15.4285714 C30,19.6914546 28.3191751,23.5505436 25.6020119,26.3429379 L15.0853136,38.4126674 L4.67649989,26.6218824 Z" id="Combined-Shape" fill-opacity="0.32" fill-rule="nonzero"></path>
                        </g>
                        <path d="M15.1658379,24 C15.1658379,24 9.34793088,21.8642992 9.34793088,18.9690971 C9.34793088,16.5224027 9.08348056,12.3335096 9.00097206,11.0937665 C8.98722065,10.8800907 9.12050361,10.7044957 9.32889046,10.6611258 C10.2343684,10.4717794 12.743473,10 15.1658379,10 C17.5882029,10 20.1015387,10.4717794 21.0080744,10.6611258 C21.2175191,10.7044957 21.3508021,10.8811485 21.3370506,11.0937665 C21.2524265,12.3345674 20.983745,16.5224027 20.983745,18.9690971 C20.983745,21.8642992 15.1658379,24 15.1658379,24" id="Protection" fill-opacity="0.4" fill="#FFFFFF"></path>
                    </g>
                </g>
            </g>
        </g>
    </g>
</svg>