<?xml version="1.0" encoding="UTF-8"?>
<svg width="30px" height="40px" viewBox="0 0 30 40" version="1.1" xmlns="http://www.w3.org/2000/svg" xmlns:xlink="http://www.w3.org/1999/xlink">
    <!-- Generator: Sketch 51.3 (57544) - http://www.bohemiancoding.com/sketch -->
    <title>Pulse - No Data</title>
    <desc>Created with Sketch.</desc>
    <defs>
        <filter x="0.0%" y="0.0%" width="100.0%" height="100.0%" filterUnits="objectBoundingBox" id="filter-1">
            <feGaussianBlur stdDeviation="0" in="SourceGraphic"></feGaussianBlur>
        </filter>
    </defs>
    <g id="3.0.0---Dashboard" stroke="none" stroke-width="1" fill="none" fill-rule="evenodd">
        <g id="Desktop---Map--UI" transform="translate(-546.000000, -813.000000)">
            <g id="Markers" transform="translate(376.000000, 533.000000)">
                <g id="No-Data" transform="translate(170.000000, 40.000000)">
                    <g id="Pulse---No-Data" transform="translate(0.000000, 240.000000)">
                        <g id="Marker---No-Data">
                            <path d="M26.3636364,37.7142857 C26.3636364,38.9771023 21.2080677,40 14.8490178,40 C8.48890198,40 3.33333333,38.9771023 3.33333333,37.7142857 C3.33333333,36.4514691 8.48890198,35.4285714 14.8490178,35.4285714 C21.2080677,35.4285714 26.3636364,36.4514691 26.3636364,37.7142857" id="Shadow" fill-opacity="0.2" fill="#2B3841" fill-rule="evenodd" filter="url(#filter-1)"></path>
                            <ellipse id="Oval-6" fill="#CCCCCC" fill-rule="nonzero" cx="15" cy="15.4285714" rx="15" ry="15.4285714"></ellipse>
                            <polygon id="Triangle-2" fill="#CCCCCC" fill-rule="nonzero" transform="translate(15.013902, 32.183419) scale(1, -1) translate(-15.013902, -32.183419) " points="15.0853136 25.9541713 25.9407552 38.4126674 4.0870497 38.4126674"></polygon>
                        </g>
                        <g id="Icon" transform="translate(7.750000, 11.250000)" fill-rule="nonzero">
                            <polyline id="Path-2" stroke-opacity="0.32" stroke="#2B3841" stroke-width="2" stroke-linecap="round" stroke-linejoin="round" points="0 5.97274117 3.10690772 5.97274117 5.09590481 0 7.51573646 12.3800659 9.5353875 5.70572563 12.2967264 5.70572563"></polyline>
                            <circle id="Oval-4" fill-opacity="0.32" fill="#2B3841" cx="14.5" cy="5.5" r="2.5"></circle>
                        </g>
                    </g>
                </g>
            </g>
        </g>
    </g>
</svg>